<svg xmlns="http://www.w3.org/2000/svg" xmlns:xlink="http://www.w3.org/1999/xlink" viewBox="0,0,256,256" width="48px" height="48px"><g fill="#ffffff" fill-rule="nonzero" stroke="none" stroke-width="1" stroke-linecap="butt" stroke-linejoin="miter" stroke-miterlimit="10" stroke-dasharray="" stroke-dashoffset="0" font-family="none" font-weight="none" font-size="none" text-anchor="none" style="mix-blend-mode: normal"><g transform="scale(10.66667,10.66667)"><path d="M6,3c-1.64497,0 -3,1.35503 -3,3v12c0,1.64497 1.35503,3 3,3h12c1.64497,0 3,-1.35503 3,-3v-12c0,-1.64497 -1.35503,-3 -3,-3zM12,7h2c0,1.005 1.471,2 2,2v2c-0.605,0 -1.332,-0.26584 -2,-0.71484v3.71484c0,1.654 -1.346,3 -3,3c-1.654,0 -3,-1.346 -3,-3c0,-1.654 1.346,-3 3,-3v2c-0.552,0 -1,0.449 -1,1c0,0.551 0.448,1 1,1c0.552,0 1,-0.449 1,-1z"></path></g></g></svg>